<?xml version="1.0" encoding="UTF-8"?>
<svg xmlns="http://www.w3.org/2000/svg" width="1927.6" height="525.0" viewBox="0 0 1927.6 525.0">
<defs><marker id="arrow-grey" viewBox="0 0 10 10" refX="10" refY="5" markerWidth="10" markerHeight="10" orient="auto" markerUnits="userSpaceOnUse"><path d="M0,1 L10,5 L0,9 Z" fill="#444444"/></marker><marker id="arrow-faded" viewBox="0 0 10 10" refX="10" refY="5" markerWidth="8" markerHeight="8" orient="auto" markerUnits="userSpaceOnUse"><path d="M0,1 L10,5 L0,9 Z" fill="#AAAAAA"/></marker></defs>
<rect x="0" y="0" width="100%" height="100%" fill="white"/>
<text x="24" y="40" font-family="Arial, sans-serif" font-size="13" fill="black">BPMN Alignment — Violation Overview</text>
<text x="24" y="80.0" font-family="Arial, sans-serif" font-size="11" fill="#333">Trace 1</text>
<polyline points="272.0,188.0 299.2,188.0" fill="none" stroke="#444444" stroke-width="1.5" stroke-linejoin="miter" stroke-linecap="butt" marker-end="url(#arrow-grey)"/>
<polyline points="448.8,188.0 475.4,188.5" fill="none" stroke="#444444" stroke-width="1.5" stroke-linejoin="miter" stroke-linecap="butt" marker-end="url(#arrow-grey)"/>
<polyline points="518.6,188.5 561.8,189.0" fill="none" stroke="#444444" stroke-width="1.5" stroke-linejoin="miter" stroke-linecap="butt" marker-end="url(#arrow-grey)"/>
<polyline points="678.2,189.0 721.4,189.5" fill="none" stroke="#444444" stroke-width="1.5" stroke-linejoin="miter" stroke-linecap="butt" marker-end="url(#arrow-grey)"/>
<polyline points="764.6,189.5 796.8,189.0" fill="none" stroke="#444444" stroke-width="1.5" stroke-linejoin="miter" stroke-linecap="butt" marker-end="url(#arrow-grey)"/>
<polyline points="935.2,189.0 967.4,189.5" fill="none" stroke="#444444" stroke-width="1.5" stroke-linejoin="miter" stroke-linecap="butt" marker-end="url(#arrow-grey)"/>
<polyline points="1010.6,189.5 1058.0,190.0" fill="none" stroke="#444444" stroke-width="1.5" stroke-linejoin="miter" stroke-linecap="butt" marker-end="url(#arrow-grey)"/>
<polyline points="1577.4,190.0 1616.6,190.5" fill="none" stroke="#444444" stroke-width="1.5" stroke-linejoin="miter" stroke-linecap="butt" marker-end="url(#arrow-grey)"/>
<polyline points="1568.0,119.0 1638.8,119.0 1638.2,172.5" fill="none" stroke="#444444" stroke-width="1.5" stroke-linejoin="miter" stroke-linecap="butt" marker-end="url(#arrow-grey)"/>
<polyline points="1568.0,256.0 1712.0,256.0" fill="none" stroke="#444444" stroke-width="1.5" stroke-linejoin="miter" stroke-linecap="butt" marker-end="url(#arrow-grey)"/>
<polyline points="1568.0,329.0 1727.6,329.0 1727.6,269.0" fill="none" stroke="#444444" stroke-width="1.5" stroke-linejoin="miter" stroke-linecap="butt" marker-end="url(#arrow-grey)"/>
<polyline points="1166.0,190.0 1196.6,190.5" fill="none" stroke="#444444" stroke-width="1.5" stroke-linejoin="miter" stroke-linecap="butt" marker-end="url(#arrow-grey)"/>
<polyline points="1239.8,190.5 1294.3,190.0" fill="none" stroke="#444444" stroke-width="1.5" stroke-linejoin="miter" stroke-linecap="butt" marker-end="url(#arrow-grey)"/>
<polyline points="497.0,206.5 497.0,367.0 1230.8,367.0 1230.8,287.5 1316.6,287.5" fill="none" stroke="#444444" stroke-width="1.5" stroke-linejoin="miter" stroke-linecap="butt" marker-end="url(#arrow-grey)"/>
<polyline points="110.0,188.5 164.0,188.0" fill="none" stroke="#444444" stroke-width="1.5" stroke-linejoin="miter" stroke-linecap="butt" marker-end="url(#arrow-grey)"/>
<polyline points="989.0,207.5 989.0,308.0 1316.6,308.0 1316.6,287.5" fill="none" stroke="#444444" stroke-width="1.5" stroke-linejoin="miter" stroke-linecap="butt" marker-end="url(#arrow-grey)"/>
<polyline points="1218.2,208.5 1218.2,287.0 1316.6,287.5" fill="none" stroke="#444444" stroke-width="1.5" stroke-linejoin="miter" stroke-linecap="butt" marker-end="url(#arrow-grey)"/>
<polyline points="743.0,207.5 743.0,328.0 1316.6,328.0 1316.6,287.5" fill="none" stroke="#444444" stroke-width="1.5" stroke-linejoin="miter" stroke-linecap="butt" marker-end="url(#arrow-grey)"/>
<polyline points="1659.8,190.5 1727.6,190.5 1727.6,244.0" fill="none" stroke="#444444" stroke-width="1.5" stroke-linejoin="miter" stroke-linecap="butt" marker-end="url(#arrow-grey)"/>
<polyline points="1338.2,305.5 1338.2,329.0 1460.0,329.0" fill="none" stroke="#444444" stroke-width="1.5" stroke-linejoin="miter" stroke-linecap="butt" marker-end="url(#arrow-grey)"/>
<polyline points="1338.2,269.5 1338.2,256.0 1460.0,256.0" fill="none" stroke="#444444" stroke-width="1.5" stroke-linejoin="miter" stroke-linecap="butt" marker-end="url(#arrow-grey)"/>
<polyline points="1458.2,188.5 1455.4,190.0" fill="none" stroke="#444444" stroke-width="1.5" stroke-linejoin="miter" stroke-linecap="butt" marker-end="url(#arrow-grey)"/>
<polyline points="1421.7,190.0 1415.0,188.5" fill="none" stroke="#444444" stroke-width="1.5" stroke-linejoin="miter" stroke-linecap="butt" marker-end="url(#arrow-grey)"/>
<polyline points="1436.6,170.5 1436.6,119.0 1460.0,119.0" fill="none" stroke="#444444" stroke-width="1.5" stroke-linejoin="miter" stroke-linecap="butt" marker-end="url(#arrow-grey)"/>
<circle cx="1724.5" cy="256.5" r="12.5" fill="#F5F5F5" stroke="#CCCCCC" stroke-width="3"/>
<text x="1747.0" y="256.5" text-anchor="start" dominant-baseline="middle" font-family="Arial, sans-serif" font-size="9" fill="#CCCCCC">END EVENT</text>
<rect x="1460.0" y="96.0" width="90.0" height="46.0" rx="7" ry="7" fill="#FAFAFA" stroke="#CCCCCC" stroke-width="1.0"/>
<text x="1505.0" y="119.0" text-anchor="middle" dominant-baseline="middle" font-family="Arial, sans-serif" font-size="9" fill="#444444">Activate Care</text>
<rect x="1460.0" y="306.0" width="90.0" height="46.0" rx="7" ry="7" fill="#FAFAFA" stroke="#CCCCCC" stroke-width="1.0"/>
<text x="1505.0" y="329.0" text-anchor="middle" dominant-baseline="middle" font-family="Arial, sans-serif" font-size="9" fill="#444444">Withdraw Case</text>
<rect x="561.8" y="166.0" width="97.0" height="46.0" rx="7" ry="7" fill="#FAFAFA" stroke="#CCCCCC" stroke-width="1.0"/>
<text x="610.3" y="189.0" text-anchor="middle" dominant-baseline="middle" font-family="Arial, sans-serif" font-size="9" fill="#444444">Complete Triage</text>
<polygon points="739.4,171.5 757.4,189.5 739.4,207.5 721.4,189.5" fill="#F5F5F5" stroke="#CCCCCC" stroke-width="1.0"/>
<text x="739.4" y="190.0" text-anchor="middle" dominant-baseline="middle" font-family="Arial, sans-serif" font-size="13.0" fill="#CCCCCC">X</text>
<rect x="796.8" y="166.0" width="115.4" height="46.0" rx="7" ry="7" fill="#FAFAFA" stroke="#CCCCCC" stroke-width="1.0"/>
<text x="854.5" y="189.0" text-anchor="middle" dominant-baseline="middle" font-family="Arial, sans-serif" font-size="9" fill="#444444">Complete Assessment</text>
<polygon points="985.4,171.5 1003.4,189.5 985.4,207.5 967.4,189.5" fill="#F5F5F5" stroke="#CCCCCC" stroke-width="1.0"/>
<text x="985.4" y="190.0" text-anchor="middle" dominant-baseline="middle" font-family="Arial, sans-serif" font-size="13.0" fill="#CCCCCC">X</text>
<rect x="1058.0" y="167.0" width="90.0" height="46.0" rx="7" ry="7" fill="#FAFAFA" stroke="#CCCCCC" stroke-width="1.0"/>
<text x="1103.0" y="190.0" text-anchor="middle" dominant-baseline="middle" font-family="Arial, sans-serif" font-size="9" fill="#444444">Close Case</text>
<polygon points="1214.6,172.5 1232.6,190.5 1214.6,208.5 1196.6,190.5" fill="#F5F5F5" stroke="#CCCCCC" stroke-width="1.0"/>
<text x="1214.6" y="191.0" text-anchor="middle" dominant-baseline="middle" font-family="Arial, sans-serif" font-size="13.0" fill="#CCCCCC">X</text>
<rect x="1294.3" y="167.0" width="106.2" height="46.0" rx="7" ry="7" fill="#35456c" stroke="#888888" stroke-width="1.5"/>
<text x="1347.4" y="190.0" text-anchor="middle" dominant-baseline="middle" font-family="Arial, sans-serif" font-size="9" fill="#ffffff">Approve Treatment</text>
<rect x="1455.4" y="167.0" width="101.6" height="46.0" rx="7" ry="7" fill="#FAFAFA" stroke="#CCCCCC" stroke-width="1.0"/>
<text x="1506.2" y="190.0" text-anchor="middle" dominant-baseline="middle" font-family="Arial, sans-serif" font-size="9" fill="#444444">Register Patient</text>
<polygon points="1634.6,172.5 1652.6,190.5 1634.6,208.5 1616.6,190.5" fill="#F5F5F5" stroke="#CCCCCC" stroke-width="1.0"/>
<text x="1634.6" y="191.0" text-anchor="middle" dominant-baseline="middle" font-family="Arial, sans-serif" font-size="13.0" fill="#CCCCCC">+</text>
<rect x="1460.0" y="233.0" width="90.0" height="46.0" rx="7" ry="7" fill="#FAFAFA" stroke="#CCCCCC" stroke-width="1.0"/>
<text x="1505.0" y="256.0" text-anchor="middle" dominant-baseline="middle" font-family="Arial, sans-serif" font-size="9" fill="#444444">Reject Case</text>
<polygon points="1334.6,269.5 1352.6,287.5 1334.6,305.5 1316.6,287.5" fill="#F5F5F5" stroke="#CCCCCC" stroke-width="1.0"/>
<text x="1334.6" y="288.0" text-anchor="middle" dominant-baseline="middle" font-family="Arial, sans-serif" font-size="13.0" fill="#CCCCCC">X</text>
<polygon points="493.4,170.5 511.4,188.5 493.4,206.5 475.4,188.5" fill="#F5F5F5" stroke="#CCCCCC" stroke-width="1.0"/>
<text x="493.4" y="189.0" text-anchor="middle" dominant-baseline="middle" font-family="Arial, sans-serif" font-size="13.0" fill="#CCCCCC">X</text>
<rect x="299.2" y="165.0" width="124.6" height="46.0" rx="7" ry="7" fill="#FAFAFA" stroke="#CCCCCC" stroke-width="1.0"/>
<text x="361.5" y="188.0" text-anchor="middle" dominant-baseline="middle" font-family="Arial, sans-serif" font-size="9" fill="#444444">Submit Partial Intake</text>
<rect x="164.0" y="165.0" width="90.0" height="46.0" rx="7" ry="7" fill="#FAFAFA" stroke="#CCCCCC" stroke-width="1.0"/>
<text x="209.0" y="188.0" text-anchor="middle" dominant-baseline="middle" font-family="Arial, sans-serif" font-size="9" fill="#444444">Open Case</text>
<circle cx="92.5" cy="188.5" r="12.5" fill="#F5F5F5" stroke="#CCCCCC" stroke-width="2"/>
<text x="92.5" y="219.0" text-anchor="middle" font-family="Arial, sans-serif" font-size="9" fill="#CCCCCC">START</text>
<polygon points="1433.0,170.5 1451.0,188.5 1433.0,206.5 1415.0,188.5" fill="#F5F5F5" stroke="#CCCCCC" stroke-width="1.0"/>
<text x="1433.0" y="189.0" text-anchor="middle" dominant-baseline="middle" font-family="Arial, sans-serif" font-size="13.0" fill="#CCCCCC">+</text>
<rect x="496.3" y="458.0" width="22" height="12" fill="#e0e0e0" stroke="#888888" stroke-width="1.0"/>
<text x="526.3" y="469.0" font-family="Arial, sans-serif" font-size="9" fill="#222">Synchronous (conform)</text>
<rect x="761.3" y="458.0" width="22" height="12" fill="#35456c" stroke="#888888" stroke-width="1.5"/>
<text x="791.3" y="469.0" font-family="Arial, sans-serif" font-size="9" fill="#222">Move on Model (skipped)</text>
<rect x="1026.3" y="458.0" width="22" height="12" fill="#7d7c78" stroke="#555555" stroke-width="1.5"/>
<text x="1056.3" y="469.0" font-family="Arial, sans-serif" font-size="9" fill="#222">Move on Log (extra)</text>
<rect x="1291.3" y="458.0" width="22" height="12" fill="#FAFAFA" stroke="#CCCCCC" stroke-width="1.0"/>
<text x="1321.3" y="469.0" font-family="Arial, sans-serif" font-size="9" fill="#222">Not in trace</text>
</svg>