<?xml version="1.0" encoding="UTF-8"?>
<svg xmlns="http://www.w3.org/2000/svg" width="1633.0" height="449.0" viewBox="0 0 1633.0 449.0">
<defs><marker id="arrow-grey" viewBox="0 0 10 10" refX="10" refY="5" markerWidth="10" markerHeight="10" orient="auto" markerUnits="userSpaceOnUse"><path d="M0,1 L10,5 L0,9 Z" fill="#444444"/></marker><marker id="arrow-faded" viewBox="0 0 10 10" refX="10" refY="5" markerWidth="8" markerHeight="8" orient="auto" markerUnits="userSpaceOnUse"><path d="M0,1 L10,5 L0,9 Z" fill="#AAAAAA"/></marker></defs>
<rect x="0" y="0" width="100%" height="100%" fill="white"/>
<text x="24" y="44" font-family="Arial, sans-serif" font-size="13" fill="black">Activities Responsible for Guideline Violations</text>
<text x="24" y="67" font-family="Arial, sans-serif" font-size="10" fill="#555">Darker = higher responsibility share (more violation moves on that activity).</text>
<polyline points="240.0,180.0 278.8,180.0" fill="none" stroke="#444444" stroke-width="1.5" stroke-linejoin="miter" stroke-linecap="butt" marker-end="url(#arrow-grey)"/>
<polyline points="371.2,180.0 409.5,180.5" fill="none" stroke="#444444" stroke-width="1.5" stroke-linejoin="miter" stroke-linecap="butt" marker-end="url(#arrow-grey)"/>
<polyline points="445.5,180.5 481.5,181.0" fill="none" stroke="#444444" stroke-width="1.5" stroke-linejoin="miter" stroke-linecap="butt" marker-end="url(#arrow-grey)"/>
<polyline points="578.5,181.0 614.5,181.5" fill="none" stroke="#444444" stroke-width="1.5" stroke-linejoin="miter" stroke-linecap="butt" marker-end="url(#arrow-grey)"/>
<polyline points="650.5,181.5 686.5,181.0" fill="none" stroke="#444444" stroke-width="1.5" stroke-linejoin="miter" stroke-linecap="butt" marker-end="url(#arrow-grey)"/>
<polyline points="783.5,181.0 819.5,181.5" fill="none" stroke="#444444" stroke-width="1.5" stroke-linejoin="miter" stroke-linecap="butt" marker-end="url(#arrow-grey)"/>
<polyline points="855.5,181.5 895.0,182.0" fill="none" stroke="#444444" stroke-width="1.5" stroke-linejoin="miter" stroke-linecap="butt" marker-end="url(#arrow-grey)"/>
<polyline points="1332.4,182.0 1360.5,182.5" fill="none" stroke="#444444" stroke-width="1.5" stroke-linejoin="miter" stroke-linecap="butt" marker-end="url(#arrow-grey)"/>
<polyline points="1321.2,111.0 1379.0,111.0 1378.5,164.5" fill="none" stroke="#444444" stroke-width="1.5" stroke-linejoin="miter" stroke-linecap="butt" marker-end="url(#arrow-grey)"/>
<polyline points="1320.0,248.0 1440.0,248.0" fill="none" stroke="#444444" stroke-width="1.5" stroke-linejoin="miter" stroke-linecap="butt" marker-end="url(#arrow-grey)"/>
<polyline points="1321.2,321.0 1453.0,321.0 1453.0,261.0" fill="none" stroke="#444444" stroke-width="1.5" stroke-linejoin="miter" stroke-linecap="butt" marker-end="url(#arrow-grey)"/>
<polyline points="985.0,182.0 1010.5,182.5" fill="none" stroke="#444444" stroke-width="1.5" stroke-linejoin="miter" stroke-linecap="butt" marker-end="url(#arrow-grey)"/>
<polyline points="1046.5,182.5 1089.6,182.0" fill="none" stroke="#444444" stroke-width="1.5" stroke-linejoin="miter" stroke-linecap="butt" marker-end="url(#arrow-grey)"/>
<polyline points="427.5,198.5 427.5,359.0 1039.0,359.0 1039.0,279.5 1110.5,279.5" fill="none" stroke="#444444" stroke-width="1.5" stroke-linejoin="miter" stroke-linecap="butt" marker-end="url(#arrow-grey)"/>
<polyline points="105.0,180.5 150.0,180.0" fill="none" stroke="#444444" stroke-width="1.5" stroke-linejoin="miter" stroke-linecap="butt" marker-end="url(#arrow-grey)"/>
<polyline points="837.5,199.5 837.5,300.0 1110.5,300.0 1110.5,279.5" fill="none" stroke="#444444" stroke-width="1.5" stroke-linejoin="miter" stroke-linecap="butt" marker-end="url(#arrow-grey)"/>
<polyline points="1028.5,200.5 1028.5,279.0 1110.5,279.5" fill="none" stroke="#444444" stroke-width="1.5" stroke-linejoin="miter" stroke-linecap="butt" marker-end="url(#arrow-grey)"/>
<polyline points="632.5,199.5 632.5,320.0 1110.5,320.0 1110.5,279.5" fill="none" stroke="#444444" stroke-width="1.5" stroke-linejoin="miter" stroke-linecap="butt" marker-end="url(#arrow-grey)"/>
<polyline points="1396.5,182.5 1453.0,182.5 1453.0,236.0" fill="none" stroke="#444444" stroke-width="1.5" stroke-linejoin="miter" stroke-linecap="butt" marker-end="url(#arrow-grey)"/>
<polyline points="1128.5,297.5 1128.5,321.0 1228.8,321.0" fill="none" stroke="#444444" stroke-width="1.5" stroke-linejoin="miter" stroke-linecap="butt" marker-end="url(#arrow-grey)"/>
<polyline points="1128.5,261.5 1128.5,248.0 1230.0,248.0" fill="none" stroke="#444444" stroke-width="1.5" stroke-linejoin="miter" stroke-linecap="butt" marker-end="url(#arrow-grey)"/>
<polyline points="1228.5,180.5 1221.6,182.0" fill="none" stroke="#444444" stroke-width="1.5" stroke-linejoin="miter" stroke-linecap="butt" marker-end="url(#arrow-grey)"/>
<polyline points="1200.4,182.0 1228.5,180.5" fill="none" stroke="#444444" stroke-width="1.5" stroke-linejoin="miter" stroke-linecap="butt" marker-end="url(#arrow-grey)"/>
<polyline points="1210.5,162.5 1210.5,111.0 1228.8,111.0" fill="none" stroke="#444444" stroke-width="1.5" stroke-linejoin="miter" stroke-linecap="butt" marker-end="url(#arrow-grey)"/>
<circle cx="1452.5" cy="248.5" r="12.5" fill="white" stroke="#888888" stroke-width="3"/>
<text x="1475.0" y="248.5" text-anchor="start" dominant-baseline="middle" font-family="Arial, sans-serif" font-size="9" fill="#888888">END EVENT</text>
<rect x="1228.8" y="88.0" width="92.4" height="46.0" rx="7" ry="7" fill="#808080" stroke="#333333" stroke-width="3"/>
<text x="1275.0" y="111.0" text-anchor="middle" dominant-baseline="middle" font-family="Arial, sans-serif" font-size="9" fill="#ffffff">CARE_ACTIVATED</text>
<rect x="1228.8" y="298.0" width="92.4" height="46.0" rx="7" ry="7" fill="white" stroke="#888888" stroke-width="2"/>
<text x="1275.0" y="321.0" text-anchor="middle" dominant-baseline="middle" font-family="Arial, sans-serif" font-size="9" fill="#333333">CASE_WITHDRAWN</text>
<rect x="481.5" y="158.0" width="97.0" height="46.0" rx="7" ry="7" fill="white" stroke="#888888" stroke-width="2"/>
<text x="530.0" y="175.8" text-anchor="middle" dominant-baseline="middle" font-family="Arial, sans-serif" font-size="9" fill="#333333">TRIAGE_</text>
<text x="530.0" y="186.2" text-anchor="middle" dominant-baseline="middle" font-family="Arial, sans-serif" font-size="9" fill="#333333">COMPLETE</text>
<polygon points="632.5,163.5 650.5,181.5 632.5,199.5 614.5,181.5" fill="white" stroke="#888888" stroke-width="2"/>
<text x="632.5" y="182.0" text-anchor="middle" dominant-baseline="middle" font-family="Arial, sans-serif" font-size="13.0" fill="#888888">X</text>
<rect x="686.5" y="158.0" width="97.0" height="46.0" rx="7" ry="7" fill="white" stroke="#888888" stroke-width="2"/>
<text x="735.0" y="175.8" text-anchor="middle" dominant-baseline="middle" font-family="Arial, sans-serif" font-size="9" fill="#333333">ASSESSMENT_</text>
<text x="735.0" y="186.2" text-anchor="middle" dominant-baseline="middle" font-family="Arial, sans-serif" font-size="9" fill="#333333">DONE</text>
<polygon points="837.5,163.5 855.5,181.5 837.5,199.5 819.5,181.5" fill="white" stroke="#888888" stroke-width="2"/>
<text x="837.5" y="182.0" text-anchor="middle" dominant-baseline="middle" font-family="Arial, sans-serif" font-size="13.0" fill="#888888">X</text>
<rect x="895.0" y="159.0" width="90.0" height="46.0" rx="7" ry="7" fill="white" stroke="#888888" stroke-width="2"/>
<text x="940.0" y="182.0" text-anchor="middle" dominant-baseline="middle" font-family="Arial, sans-serif" font-size="9" fill="#333333">CASE_CLOSED</text>
<polygon points="1028.5,164.5 1046.5,182.5 1028.5,200.5 1010.5,182.5" fill="white" stroke="#888888" stroke-width="2"/>
<text x="1028.5" y="183.0" text-anchor="middle" dominant-baseline="middle" font-family="Arial, sans-serif" font-size="13.0" fill="#888888">X</text>
<rect x="1089.6" y="159.0" width="110.8" height="46.0" rx="7" ry="7" fill="#7c7c7c" stroke="#333333" stroke-width="3"/>
<text x="1145.0" y="176.8" text-anchor="middle" dominant-baseline="middle" font-family="Arial, sans-serif" font-size="9" fill="#ffffff">TREATMENT_</text>
<text x="1145.0" y="187.2" text-anchor="middle" dominant-baseline="middle" font-family="Arial, sans-serif" font-size="9" fill="#ffffff">APPROVED</text>
<rect x="1221.6" y="159.0" width="110.8" height="46.0" rx="7" ry="7" fill="#414141" stroke="#333333" stroke-width="3"/>
<text x="1277.0" y="176.8" text-anchor="middle" dominant-baseline="middle" font-family="Arial, sans-serif" font-size="9" fill="#ffffff">PATIENT_</text>
<text x="1277.0" y="187.2" text-anchor="middle" dominant-baseline="middle" font-family="Arial, sans-serif" font-size="9" fill="#ffffff">REGISTERED</text>
<polygon points="1378.5,164.5 1396.5,182.5 1378.5,200.5 1360.5,182.5" fill="white" stroke="#888888" stroke-width="2"/>
<text x="1378.5" y="183.0" text-anchor="middle" dominant-baseline="middle" font-family="Arial, sans-serif" font-size="13.0" fill="#888888">+</text>
<rect x="1230.0" y="225.0" width="90.0" height="46.0" rx="7" ry="7" fill="#a5a5a5" stroke="#333333" stroke-width="3"/>
<text x="1275.0" y="248.0" text-anchor="middle" dominant-baseline="middle" font-family="Arial, sans-serif" font-size="9" fill="#1a1a1a">CASE_REJECTED</text>
<polygon points="1128.5,261.5 1146.5,279.5 1128.5,297.5 1110.5,279.5" fill="white" stroke="#888888" stroke-width="2"/>
<text x="1128.5" y="280.0" text-anchor="middle" dominant-baseline="middle" font-family="Arial, sans-serif" font-size="13.0" fill="#888888">X</text>
<polygon points="427.5,162.5 445.5,180.5 427.5,198.5 409.5,180.5" fill="white" stroke="#888888" stroke-width="2"/>
<text x="427.5" y="181.0" text-anchor="middle" dominant-baseline="middle" font-family="Arial, sans-serif" font-size="13.0" fill="#888888">X</text>
<rect x="278.8" y="157.0" width="92.4" height="46.0" rx="7" ry="7" fill="white" stroke="#888888" stroke-width="2"/>
<text x="325.0" y="180.0" text-anchor="middle" dominant-baseline="middle" font-family="Arial, sans-serif" font-size="9" fill="#333333">INTAKE_PARTIAL</text>
<rect x="150.0" y="157.0" width="90.0" height="46.0" rx="7" ry="7" fill="white" stroke="#888888" stroke-width="2"/>
<text x="195.0" y="180.0" text-anchor="middle" dominant-baseline="middle" font-family="Arial, sans-serif" font-size="9" fill="#333333">CASE_OPENED</text>
<circle cx="92.5" cy="180.5" r="12.5" fill="white" stroke="#888888" stroke-width="2"/>
<text x="92.5" y="211.0" text-anchor="middle" font-family="Arial, sans-serif" font-size="9" fill="#888888">START</text>
<polygon points="1210.5,162.5 1228.5,180.5 1210.5,198.5 1192.5,180.5" fill="white" stroke="#888888" stroke-width="2"/>
<text x="1210.5" y="181.0" text-anchor="middle" dominant-baseline="middle" font-family="Arial, sans-serif" font-size="13.0" fill="#888888">+</text>
<rect x="481.5" y="422.0" width="22" height="12" fill="#414141" stroke="#333333" stroke-width="3"/>
<text x="511.5" y="433.0" font-family="Arial, sans-serif" font-size="9" fill="#222">High responsibility</text>
<rect x="746.5" y="422.0" width="22" height="12" fill="#c8c8c8" stroke="#333333" stroke-width="3"/>
<text x="776.5" y="433.0" font-family="Arial, sans-serif" font-size="9" fill="#222">Lower responsibility</text>
<rect x="1011.5" y="422.0" width="22" height="12" fill="white" stroke="#888888" stroke-width="2"/>
<text x="1041.5" y="433.0" font-family="Arial, sans-serif" font-size="9" fill="#222">Not responsible</text>
</svg>