<?xml version="1.0" encoding="utf-8" standalone="no"?>
<!DOCTYPE svg PUBLIC "-//W3C//DTD SVG 1.1//EN"
  "http://www.w3.org/Graphics/SVG/1.1/DTD/svg11.dtd">
<svg xmlns:xlink="http://www.w3.org/1999/xlink" width="714.203594pt" height="496.8pt" viewBox="0 0 714.203594 496.8" xmlns="http://www.w3.org/2000/svg" version="1.1">
 <metadata>
  <rdf:RDF xmlns:dc="http://purl.org/dc/elements/1.1/" xmlns:cc="http://creativecommons.org/ns#" xmlns:rdf="http://www.w3.org/1999/02/22-rdf-syntax-ns#">
   <cc:Work>
    <dc:type rdf:resource="http://purl.org/dc/dcmitype/StillImage"/>
    <dc:date>2026-07-03T01:23:30.041568</dc:date>
    <dc:format>image/svg+xml</dc:format>
    <dc:creator>
     <cc:Agent>
      <dc:title>Matplotlib v3.10.1, https://matplotlib.org/</dc:title>
     </cc:Agent>
    </dc:creator>
   </cc:Work>
  </rdf:RDF>
 </metadata>
 <defs>
  <style type="text/css">*{stroke-linejoin: round; stroke-linecap: butt}</style>
 </defs>
 <g id="figure_1">
  <g id="patch_1">
   <path d="M 0 496.8 
L 714.203594 496.8 
L 714.203594 0 
L 0 0 
z
" style="fill: #ffffff"/>
  </g>
  <g id="axes_1">
   <g id="patch_2">
    <path d="M 186.039844 486 
C 398.079844 486 398.079844 486 610.119844 486 
L 610.119844 422.05413 
C 398.079844 422.05413 398.079844 422.05413 186.039844 422.05413 
z
" clip-path="url(#pdc44d820e6)" style="fill: #727274; opacity: 0.35"/>
   </g>
   <g id="patch_3">
    <path d="M 186.039844 422.05413 
C 398.079844 422.05413 398.079844 422.05413 610.119844 422.05413 
L 610.119844 343.217926 
C 398.079844 343.217926 398.079844 343.217926 186.039844 343.217926 
z
" clip-path="url(#pdc44d820e6)" style="fill: #a99f73; opacity: 0.35"/>
   </g>
   <g id="patch_4">
    <path d="M 186.039844 343.217926 
C 398.079844 343.217926 398.079844 343.217926 610.119844 343.217926 
L 610.119844 340.427768 
C 398.079844 340.427768 398.079844 340.427768 186.039844 340.427768 
z
" clip-path="url(#pdc44d820e6)" style="fill: #727274; opacity: 0.35"/>
   </g>
   <g id="patch_5">
    <path d="M 186.039844 340.427768 
C 398.079844 340.427768 398.079844 340.427768 610.119844 340.427768 
L 610.119844 146.711072 
C 398.079844 146.711072 398.079844 146.711072 186.039844 146.711072 
z
" clip-path="url(#pdc44d820e6)" style="fill: #a99f73; opacity: 0.35"/>
   </g>
   <g id="patch_6">
    <path d="M 186.039844 146.711072 
C 398.079844 146.711072 398.079844 146.711072 610.119844 146.711072 
L 610.119844 113.428471 
C 398.079844 113.428471 398.079844 113.428471 186.039844 113.428471 
z
" clip-path="url(#pdc44d820e6)" style="fill: #727274; opacity: 0.35"/>
   </g>
   <g id="patch_7">
    <path d="M 186.039844 113.428471 
C 398.079844 113.428471 398.079844 113.428471 610.119844 113.428471 
L 610.119844 113.4 
C 398.079844 113.4 398.079844 113.4 186.039844 113.4 
z
" clip-path="url(#pdc44d820e6)" style="fill: #a99f73; opacity: 0.35"/>
   </g>
   <g id="patch_8">
    <path d="M 158.139844 486 
L 213.939844 486 
L 213.939844 422.05413 
L 158.139844 422.05413 
z
" clip-path="url(#pdc44d820e6)" style="fill: #727274; stroke: #ffffff; stroke-width: 0.8; stroke-linejoin: miter"/>
   </g>
   <g id="text_1">
    <!-- CARE_ACTIVATED (Log Move) -->
    <g style="fill: #333333" transform="translate(18.338906 456.380424) scale(0.09 -0.09)">
     <defs>
      <path id="DejaVuSans-43" d="M 4122 4306 
L 4122 3641 
Q 3803 3938 3442 4084 
Q 3081 4231 2675 4231 
Q 1875 4231 1450 3742 
Q 1025 3253 1025 2328 
Q 1025 1406 1450 917 
Q 1875 428 2675 428 
Q 3081 428 3442 575 
Q 3803 722 4122 1019 
L 4122 359 
Q 3791 134 3420 21 
Q 3050 -91 2638 -91 
Q 1578 -91 968 557 
Q 359 1206 359 2328 
Q 359 3453 968 4101 
Q 1578 4750 2638 4750 
Q 3056 4750 3426 4639 
Q 3797 4528 4122 4306 
z
" transform="scale(0.015625)"/>
      <path id="DejaVuSans-41" d="M 2188 4044 
L 1331 1722 
L 3047 1722 
L 2188 4044 
z
M 1831 4666 
L 2547 4666 
L 4325 0 
L 3669 0 
L 3244 1197 
L 1141 1197 
L 716 0 
L 50 0 
L 1831 4666 
z
" transform="scale(0.015625)"/>
      <path id="DejaVuSans-52" d="M 2841 2188 
Q 3044 2119 3236 1894 
Q 3428 1669 3622 1275 
L 4263 0 
L 3584 0 
L 2988 1197 
Q 2756 1666 2539 1819 
Q 2322 1972 1947 1972 
L 1259 1972 
L 1259 0 
L 628 0 
L 628 4666 
L 2053 4666 
Q 2853 4666 3247 4331 
Q 3641 3997 3641 3322 
Q 3641 2881 3436 2590 
Q 3231 2300 2841 2188 
z
M 1259 4147 
L 1259 2491 
L 2053 2491 
Q 2509 2491 2742 2702 
Q 2975 2913 2975 3322 
Q 2975 3731 2742 3939 
Q 2509 4147 2053 4147 
L 1259 4147 
z
" transform="scale(0.015625)"/>
      <path id="DejaVuSans-45" d="M 628 4666 
L 3578 4666 
L 3578 4134 
L 1259 4134 
L 1259 2753 
L 3481 2753 
L 3481 2222 
L 1259 2222 
L 1259 531 
L 3634 531 
L 3634 0 
L 628 0 
L 628 4666 
z
" transform="scale(0.015625)"/>
      <path id="DejaVuSans-5f" d="M 3263 -1063 
L 3263 -1509 
L -63 -1509 
L -63 -1063 
L 3263 -1063 
z
" transform="scale(0.015625)"/>
      <path id="DejaVuSans-54" d="M -19 4666 
L 3928 4666 
L 3928 4134 
L 2272 4134 
L 2272 0 
L 1638 0 
L 1638 4134 
L -19 4134 
L -19 4666 
z
" transform="scale(0.015625)"/>
      <path id="DejaVuSans-49" d="M 628 4666 
L 1259 4666 
L 1259 0 
L 628 0 
L 628 4666 
z
" transform="scale(0.015625)"/>
      <path id="DejaVuSans-56" d="M 1831 0 
L 50 4666 
L 709 4666 
L 2188 738 
L 3669 4666 
L 4325 4666 
L 2547 0 
L 1831 0 
z
" transform="scale(0.015625)"/>
      <path id="DejaVuSans-44" d="M 1259 4147 
L 1259 519 
L 2022 519 
Q 2988 519 3436 956 
Q 3884 1394 3884 2338 
Q 3884 3275 3436 3711 
Q 2988 4147 2022 4147 
L 1259 4147 
z
M 628 4666 
L 1925 4666 
Q 3281 4666 3915 4102 
Q 4550 3538 4550 2338 
Q 4550 1131 3912 565 
Q 3275 0 1925 0 
L 628 0 
L 628 4666 
z
" transform="scale(0.015625)"/>
      <path id="DejaVuSans-20" transform="scale(0.015625)"/>
      <path id="DejaVuSans-28" d="M 1984 4856 
Q 1566 4138 1362 3434 
Q 1159 2731 1159 2009 
Q 1159 1288 1364 580 
Q 1569 -128 1984 -844 
L 1484 -844 
Q 1016 -109 783 600 
Q 550 1309 550 2009 
Q 550 2706 781 3412 
Q 1013 4119 1484 4856 
L 1984 4856 
z
" transform="scale(0.015625)"/>
      <path id="DejaVuSans-4c" d="M 628 4666 
L 1259 4666 
L 1259 531 
L 3531 531 
L 3531 0 
L 628 0 
L 628 4666 
z
" transform="scale(0.015625)"/>
      <path id="DejaVuSans-6f" d="M 1959 3097 
Q 1497 3097 1228 2736 
Q 959 2375 959 1747 
Q 959 1119 1226 758 
Q 1494 397 1959 397 
Q 2419 397 2687 759 
Q 2956 1122 2956 1747 
Q 2956 2369 2687 2733 
Q 2419 3097 1959 3097 
z
M 1959 3584 
Q 2709 3584 3137 3096 
Q 3566 2609 3566 1747 
Q 3566 888 3137 398 
Q 2709 -91 1959 -91 
Q 1206 -91 779 398 
Q 353 888 353 1747 
Q 353 2609 779 3096 
Q 1206 3584 1959 3584 
z
" transform="scale(0.015625)"/>
      <path id="DejaVuSans-67" d="M 2906 1791 
Q 2906 2416 2648 2759 
Q 2391 3103 1925 3103 
Q 1463 3103 1205 2759 
Q 947 2416 947 1791 
Q 947 1169 1205 825 
Q 1463 481 1925 481 
Q 2391 481 2648 825 
Q 2906 1169 2906 1791 
z
M 3481 434 
Q 3481 -459 3084 -895 
Q 2688 -1331 1869 -1331 
Q 1566 -1331 1297 -1286 
Q 1028 -1241 775 -1147 
L 775 -588 
Q 1028 -725 1275 -790 
Q 1522 -856 1778 -856 
Q 2344 -856 2625 -561 
Q 2906 -266 2906 331 
L 2906 616 
Q 2728 306 2450 153 
Q 2172 0 1784 0 
Q 1141 0 747 490 
Q 353 981 353 1791 
Q 353 2603 747 3093 
Q 1141 3584 1784 3584 
Q 2172 3584 2450 3431 
Q 2728 3278 2906 2969 
L 2906 3500 
L 3481 3500 
L 3481 434 
z
" transform="scale(0.015625)"/>
      <path id="DejaVuSans-4d" d="M 628 4666 
L 1569 4666 
L 2759 1491 
L 3956 4666 
L 4897 4666 
L 4897 0 
L 4281 0 
L 4281 4097 
L 3078 897 
L 2444 897 
L 1241 4097 
L 1241 0 
L 628 0 
L 628 4666 
z
" transform="scale(0.015625)"/>
      <path id="DejaVuSans-76" d="M 191 3500 
L 800 3500 
L 1894 563 
L 2988 3500 
L 3597 3500 
L 2284 0 
L 1503 0 
L 191 3500 
z
" transform="scale(0.015625)"/>
      <path id="DejaVuSans-65" d="M 3597 1894 
L 3597 1613 
L 953 1613 
Q 991 1019 1311 708 
Q 1631 397 2203 397 
Q 2534 397 2845 478 
Q 3156 559 3463 722 
L 3463 178 
Q 3153 47 2828 -22 
Q 2503 -91 2169 -91 
Q 1331 -91 842 396 
Q 353 884 353 1716 
Q 353 2575 817 3079 
Q 1281 3584 2069 3584 
Q 2775 3584 3186 3129 
Q 3597 2675 3597 1894 
z
M 3022 2063 
Q 3016 2534 2758 2815 
Q 2500 3097 2075 3097 
Q 1594 3097 1305 2825 
Q 1016 2553 972 2059 
L 3022 2063 
z
" transform="scale(0.015625)"/>
      <path id="DejaVuSans-29" d="M 513 4856 
L 1013 4856 
Q 1481 4119 1714 3412 
Q 1947 2706 1947 2009 
Q 1947 1309 1714 600 
Q 1481 -109 1013 -844 
L 513 -844 
Q 928 -128 1133 580 
Q 1338 1288 1338 2009 
Q 1338 2731 1133 3434 
Q 928 4138 513 4856 
z
" transform="scale(0.015625)"/>
     </defs>
     <use xlink:href="#DejaVuSans-43"/>
     <use xlink:href="#DejaVuSans-41" transform="translate(69.824219 0)"/>
     <use xlink:href="#DejaVuSans-52" transform="translate(138.232422 0)"/>
     <use xlink:href="#DejaVuSans-45" transform="translate(207.714844 0)"/>
     <use xlink:href="#DejaVuSans-5f" transform="translate(270.898438 0)"/>
     <use xlink:href="#DejaVuSans-41" transform="translate(320.898438 0)"/>
     <use xlink:href="#DejaVuSans-43" transform="translate(387.556641 0)"/>
     <use xlink:href="#DejaVuSans-54" transform="translate(457.380859 0)"/>
     <use xlink:href="#DejaVuSans-49" transform="translate(518.464844 0)"/>
     <use xlink:href="#DejaVuSans-56" transform="translate(547.957031 0)"/>
     <use xlink:href="#DejaVuSans-41" transform="translate(609.990234 0)"/>
     <use xlink:href="#DejaVuSans-54" transform="translate(670.648438 0)"/>
     <use xlink:href="#DejaVuSans-45" transform="translate(731.732422 0)"/>
     <use xlink:href="#DejaVuSans-44" transform="translate(794.916016 0)"/>
     <use xlink:href="#DejaVuSans-20" transform="translate(871.917969 0)"/>
     <use xlink:href="#DejaVuSans-28" transform="translate(903.705078 0)"/>
     <use xlink:href="#DejaVuSans-4c" transform="translate(942.71875 0)"/>
     <use xlink:href="#DejaVuSans-6f" transform="translate(996.681641 0)"/>
     <use xlink:href="#DejaVuSans-67" transform="translate(1057.863281 0)"/>
     <use xlink:href="#DejaVuSans-20" transform="translate(1121.339844 0)"/>
     <use xlink:href="#DejaVuSans-4d" transform="translate(1153.126953 0)"/>
     <use xlink:href="#DejaVuSans-6f" transform="translate(1239.40625 0)"/>
     <use xlink:href="#DejaVuSans-76" transform="translate(1300.587891 0)"/>
     <use xlink:href="#DejaVuSans-65" transform="translate(1359.767578 0)"/>
     <use xlink:href="#DejaVuSans-29" transform="translate(1421.291016 0)"/>
    </g>
   </g>
   <g id="patch_9">
    <path d="M 158.139844 422.05413 
L 213.939844 422.05413 
L 213.939844 422.05413 
L 158.139844 422.05413 
z
" clip-path="url(#pdc44d820e6)" style="fill: #a99f73; stroke: #ffffff; stroke-width: 0.8; stroke-linejoin: miter"/>
   </g>
   <g id="patch_10">
    <path d="M 158.139844 422.05413 
L 213.939844 422.05413 
L 213.939844 422.05413 
L 158.139844 422.05413 
z
" clip-path="url(#pdc44d820e6)" style="fill: #727274; stroke: #ffffff; stroke-width: 0.8; stroke-linejoin: miter"/>
   </g>
   <g id="patch_11">
    <path d="M 158.139844 422.05413 
L 213.939844 422.05413 
L 213.939844 343.217926 
L 158.139844 343.217926 
z
" clip-path="url(#pdc44d820e6)" style="fill: #a99f73; stroke: #ffffff; stroke-width: 0.8; stroke-linejoin: miter"/>
   </g>
   <g id="text_2">
    <!-- CASE_CLOSED (Log Move) -->
    <g style="fill: #333333" transform="translate(32.082188 384.989387) scale(0.09 -0.09)">
     <defs>
      <path id="DejaVuSans-53" d="M 3425 4513 
L 3425 3897 
Q 3066 4069 2747 4153 
Q 2428 4238 2131 4238 
Q 1616 4238 1336 4038 
Q 1056 3838 1056 3469 
Q 1056 3159 1242 3001 
Q 1428 2844 1947 2747 
L 2328 2669 
Q 3034 2534 3370 2195 
Q 3706 1856 3706 1288 
Q 3706 609 3251 259 
Q 2797 -91 1919 -91 
Q 1588 -91 1214 -16 
Q 841 59 441 206 
L 441 856 
Q 825 641 1194 531 
Q 1563 422 1919 422 
Q 2459 422 2753 634 
Q 3047 847 3047 1241 
Q 3047 1584 2836 1778 
Q 2625 1972 2144 2069 
L 1759 2144 
Q 1053 2284 737 2584 
Q 422 2884 422 3419 
Q 422 4038 858 4394 
Q 1294 4750 2059 4750 
Q 2388 4750 2728 4690 
Q 3069 4631 3425 4513 
z
" transform="scale(0.015625)"/>
      <path id="DejaVuSans-4f" d="M 2522 4238 
Q 1834 4238 1429 3725 
Q 1025 3213 1025 2328 
Q 1025 1447 1429 934 
Q 1834 422 2522 422 
Q 3209 422 3611 934 
Q 4013 1447 4013 2328 
Q 4013 3213 3611 3725 
Q 3209 4238 2522 4238 
z
M 2522 4750 
Q 3503 4750 4090 4092 
Q 4678 3434 4678 2328 
Q 4678 1225 4090 567 
Q 3503 -91 2522 -91 
Q 1538 -91 948 565 
Q 359 1222 359 2328 
Q 359 3434 948 4092 
Q 1538 4750 2522 4750 
z
" transform="scale(0.015625)"/>
     </defs>
     <use xlink:href="#DejaVuSans-43"/>
     <use xlink:href="#DejaVuSans-41" transform="translate(69.824219 0)"/>
     <use xlink:href="#DejaVuSans-53" transform="translate(138.232422 0)"/>
     <use xlink:href="#DejaVuSans-45" transform="translate(201.708984 0)"/>
     <use xlink:href="#DejaVuSans-5f" transform="translate(264.892578 0)"/>
     <use xlink:href="#DejaVuSans-43" transform="translate(314.892578 0)"/>
     <use xlink:href="#DejaVuSans-4c" transform="translate(384.716797 0)"/>
     <use xlink:href="#DejaVuSans-4f" transform="translate(436.804688 0)"/>
     <use xlink:href="#DejaVuSans-53" transform="translate(515.515625 0)"/>
     <use xlink:href="#DejaVuSans-45" transform="translate(578.992188 0)"/>
     <use xlink:href="#DejaVuSans-44" transform="translate(642.175781 0)"/>
     <use xlink:href="#DejaVuSans-20" transform="translate(719.177734 0)"/>
     <use xlink:href="#DejaVuSans-28" transform="translate(750.964844 0)"/>
     <use xlink:href="#DejaVuSans-4c" transform="translate(789.978516 0)"/>
     <use xlink:href="#DejaVuSans-6f" transform="translate(843.941406 0)"/>
     <use xlink:href="#DejaVuSans-67" transform="translate(905.123047 0)"/>
     <use xlink:href="#DejaVuSans-20" transform="translate(968.599609 0)"/>
     <use xlink:href="#DejaVuSans-4d" transform="translate(1000.386719 0)"/>
     <use xlink:href="#DejaVuSans-6f" transform="translate(1086.666016 0)"/>
     <use xlink:href="#DejaVuSans-76" transform="translate(1147.847656 0)"/>
     <use xlink:href="#DejaVuSans-65" transform="translate(1207.027344 0)"/>
     <use xlink:href="#DejaVuSans-29" transform="translate(1268.550781 0)"/>
    </g>
   </g>
   <g id="patch_12">
    <path d="M 158.139844 343.217926 
L 213.939844 343.217926 
L 213.939844 340.427768 
L 158.139844 340.427768 
z
" clip-path="url(#pdc44d820e6)" style="fill: #727274; stroke: #ffffff; stroke-width: 0.8; stroke-linejoin: miter"/>
   </g>
   <g id="patch_13">
    <path d="M 158.139844 340.427768 
L 213.939844 340.427768 
L 213.939844 146.711072 
L 158.139844 146.711072 
z
" clip-path="url(#pdc44d820e6)" style="fill: #a99f73; stroke: #ffffff; stroke-width: 0.8; stroke-linejoin: miter"/>
   </g>
   <g id="text_3">
    <!-- CASE_REJECTED (Log Move) -->
    <g style="fill: #333333" transform="translate(23.789531 245.922779) scale(0.09 -0.09)">
     <defs>
      <path id="DejaVuSans-4a" d="M 628 4666 
L 1259 4666 
L 1259 325 
Q 1259 -519 939 -900 
Q 619 -1281 -91 -1281 
L -331 -1281 
L -331 -750 
L -134 -750 
Q 284 -750 456 -515 
Q 628 -281 628 325 
L 628 4666 
z
" transform="scale(0.015625)"/>
     </defs>
     <use xlink:href="#DejaVuSans-43"/>
     <use xlink:href="#DejaVuSans-41" transform="translate(69.824219 0)"/>
     <use xlink:href="#DejaVuSans-53" transform="translate(138.232422 0)"/>
     <use xlink:href="#DejaVuSans-45" transform="translate(201.708984 0)"/>
     <use xlink:href="#DejaVuSans-5f" transform="translate(264.892578 0)"/>
     <use xlink:href="#DejaVuSans-52" transform="translate(314.892578 0)"/>
     <use xlink:href="#DejaVuSans-45" transform="translate(384.375 0)"/>
     <use xlink:href="#DejaVuSans-4a" transform="translate(447.558594 0)"/>
     <use xlink:href="#DejaVuSans-45" transform="translate(477.050781 0)"/>
     <use xlink:href="#DejaVuSans-43" transform="translate(540.234375 0)"/>
     <use xlink:href="#DejaVuSans-54" transform="translate(610.058594 0)"/>
     <use xlink:href="#DejaVuSans-45" transform="translate(671.142578 0)"/>
     <use xlink:href="#DejaVuSans-44" transform="translate(734.326172 0)"/>
     <use xlink:href="#DejaVuSans-20" transform="translate(811.328125 0)"/>
     <use xlink:href="#DejaVuSans-28" transform="translate(843.115234 0)"/>
     <use xlink:href="#DejaVuSans-4c" transform="translate(882.128906 0)"/>
     <use xlink:href="#DejaVuSans-6f" transform="translate(936.091797 0)"/>
     <use xlink:href="#DejaVuSans-67" transform="translate(997.273438 0)"/>
     <use xlink:href="#DejaVuSans-20" transform="translate(1060.75 0)"/>
     <use xlink:href="#DejaVuSans-4d" transform="translate(1092.537109 0)"/>
     <use xlink:href="#DejaVuSans-6f" transform="translate(1178.816406 0)"/>
     <use xlink:href="#DejaVuSans-76" transform="translate(1239.998047 0)"/>
     <use xlink:href="#DejaVuSans-65" transform="translate(1299.177734 0)"/>
     <use xlink:href="#DejaVuSans-29" transform="translate(1360.701172 0)"/>
    </g>
   </g>
   <g id="patch_14">
    <path d="M 158.139844 146.711072 
L 213.939844 146.711072 
L 213.939844 113.428471 
L 158.139844 113.428471 
z
" clip-path="url(#pdc44d820e6)" style="fill: #727274; stroke: #ffffff; stroke-width: 0.8; stroke-linejoin: miter"/>
   </g>
   <g id="text_4">
    <!-- TRIAGE_COMPLETE (Log Move) -->
    <g style="fill: #333333" transform="translate(10.8 132.423131) scale(0.09 -0.09)">
     <defs>
      <path id="DejaVuSans-47" d="M 3809 666 
L 3809 1919 
L 2778 1919 
L 2778 2438 
L 4434 2438 
L 4434 434 
Q 4069 175 3628 42 
Q 3188 -91 2688 -91 
Q 1594 -91 976 548 
Q 359 1188 359 2328 
Q 359 3472 976 4111 
Q 1594 4750 2688 4750 
Q 3144 4750 3555 4637 
Q 3966 4525 4313 4306 
L 4313 3634 
Q 3963 3931 3569 4081 
Q 3175 4231 2741 4231 
Q 1884 4231 1454 3753 
Q 1025 3275 1025 2328 
Q 1025 1384 1454 906 
Q 1884 428 2741 428 
Q 3075 428 3337 486 
Q 3600 544 3809 666 
z
" transform="scale(0.015625)"/>
      <path id="DejaVuSans-50" d="M 1259 4147 
L 1259 2394 
L 2053 2394 
Q 2494 2394 2734 2622 
Q 2975 2850 2975 3272 
Q 2975 3691 2734 3919 
Q 2494 4147 2053 4147 
L 1259 4147 
z
M 628 4666 
L 2053 4666 
Q 2838 4666 3239 4311 
Q 3641 3956 3641 3272 
Q 3641 2581 3239 2228 
Q 2838 1875 2053 1875 
L 1259 1875 
L 1259 0 
L 628 0 
L 628 4666 
z
" transform="scale(0.015625)"/>
     </defs>
     <use xlink:href="#DejaVuSans-54"/>
     <use xlink:href="#DejaVuSans-52" transform="translate(61.083984 0)"/>
     <use xlink:href="#DejaVuSans-49" transform="translate(130.566406 0)"/>
     <use xlink:href="#DejaVuSans-41" transform="translate(160.058594 0)"/>
     <use xlink:href="#DejaVuSans-47" transform="translate(226.716797 0)"/>
     <use xlink:href="#DejaVuSans-45" transform="translate(304.207031 0)"/>
     <use xlink:href="#DejaVuSans-5f" transform="translate(367.390625 0)"/>
     <use xlink:href="#DejaVuSans-43" transform="translate(417.390625 0)"/>
     <use xlink:href="#DejaVuSans-4f" transform="translate(487.214844 0)"/>
     <use xlink:href="#DejaVuSans-4d" transform="translate(565.925781 0)"/>
     <use xlink:href="#DejaVuSans-50" transform="translate(652.205078 0)"/>
     <use xlink:href="#DejaVuSans-4c" transform="translate(712.507812 0)"/>
     <use xlink:href="#DejaVuSans-45" transform="translate(768.220703 0)"/>
     <use xlink:href="#DejaVuSans-54" transform="translate(831.404297 0)"/>
     <use xlink:href="#DejaVuSans-45" transform="translate(892.488281 0)"/>
     <use xlink:href="#DejaVuSans-20" transform="translate(955.671875 0)"/>
     <use xlink:href="#DejaVuSans-28" transform="translate(987.458984 0)"/>
     <use xlink:href="#DejaVuSans-4c" transform="translate(1026.472656 0)"/>
     <use xlink:href="#DejaVuSans-6f" transform="translate(1080.435547 0)"/>
     <use xlink:href="#DejaVuSans-67" transform="translate(1141.617188 0)"/>
     <use xlink:href="#DejaVuSans-20" transform="translate(1205.09375 0)"/>
     <use xlink:href="#DejaVuSans-4d" transform="translate(1236.880859 0)"/>
     <use xlink:href="#DejaVuSans-6f" transform="translate(1323.160156 0)"/>
     <use xlink:href="#DejaVuSans-76" transform="translate(1384.341797 0)"/>
     <use xlink:href="#DejaVuSans-65" transform="translate(1443.521484 0)"/>
     <use xlink:href="#DejaVuSans-29" transform="translate(1505.044922 0)"/>
    </g>
   </g>
   <g id="patch_15">
    <path d="M 158.139844 113.428471 
L 213.939844 113.428471 
L 213.939844 113.4 
L 158.139844 113.4 
z
" clip-path="url(#pdc44d820e6)" style="fill: #a99f73; stroke: #ffffff; stroke-width: 0.8; stroke-linejoin: miter"/>
   </g>
   <g id="patch_16">
    <path d="M 158.139844 113.4 
L 213.939844 113.4 
L 213.939844 113.4 
L 158.139844 113.4 
z
" clip-path="url(#pdc44d820e6)" style="fill: #727274; stroke: #ffffff; stroke-width: 0.8; stroke-linejoin: miter"/>
   </g>
   <g id="patch_17">
    <path d="M 158.139844 113.4 
L 213.939844 113.4 
L 213.939844 113.4 
L 158.139844 113.4 
z
" clip-path="url(#pdc44d820e6)" style="fill: #a99f73; stroke: #ffffff; stroke-width: 0.8; stroke-linejoin: miter"/>
   </g>
   <g id="patch_18">
    <path d="M 158.139844 113.4 
L 213.939844 113.4 
L 213.939844 113.4 
L 158.139844 113.4 
z
" clip-path="url(#pdc44d820e6)" style="fill: #727274; stroke: #ffffff; stroke-width: 0.8; stroke-linejoin: miter"/>
   </g>
   <g id="patch_19">
    <path d="M 582.219844 486 
L 638.019844 486 
L 638.019844 422.05413 
L 582.219844 422.05413 
z
" clip-path="url(#pdc44d820e6)" style="fill: #e5cf52; stroke: #ffffff; stroke-width: 0.8; stroke-linejoin: miter"/>
   </g>
   <g id="text_5">
    <!-- Goal achieved -->
    <g style="fill: #333333" transform="translate(646.389844 456.234565) scale(0.08 -0.08)">
     <defs>
      <path id="DejaVuSans-61" d="M 2194 1759 
Q 1497 1759 1228 1600 
Q 959 1441 959 1056 
Q 959 750 1161 570 
Q 1363 391 1709 391 
Q 2188 391 2477 730 
Q 2766 1069 2766 1631 
L 2766 1759 
L 2194 1759 
z
M 3341 1997 
L 3341 0 
L 2766 0 
L 2766 531 
Q 2569 213 2275 61 
Q 1981 -91 1556 -91 
Q 1019 -91 701 211 
Q 384 513 384 1019 
Q 384 1609 779 1909 
Q 1175 2209 1959 2209 
L 2766 2209 
L 2766 2266 
Q 2766 2663 2505 2880 
Q 2244 3097 1772 3097 
Q 1472 3097 1187 3025 
Q 903 2953 641 2809 
L 641 3341 
Q 956 3463 1253 3523 
Q 1550 3584 1831 3584 
Q 2591 3584 2966 3190 
Q 3341 2797 3341 1997 
z
" transform="scale(0.015625)"/>
      <path id="DejaVuSans-6c" d="M 603 4863 
L 1178 4863 
L 1178 0 
L 603 0 
L 603 4863 
z
" transform="scale(0.015625)"/>
      <path id="DejaVuSans-63" d="M 3122 3366 
L 3122 2828 
Q 2878 2963 2633 3030 
Q 2388 3097 2138 3097 
Q 1578 3097 1268 2742 
Q 959 2388 959 1747 
Q 959 1106 1268 751 
Q 1578 397 2138 397 
Q 2388 397 2633 464 
Q 2878 531 3122 666 
L 3122 134 
Q 2881 22 2623 -34 
Q 2366 -91 2075 -91 
Q 1284 -91 818 406 
Q 353 903 353 1747 
Q 353 2603 823 3093 
Q 1294 3584 2113 3584 
Q 2378 3584 2631 3529 
Q 2884 3475 3122 3366 
z
" transform="scale(0.015625)"/>
      <path id="DejaVuSans-68" d="M 3513 2113 
L 3513 0 
L 2938 0 
L 2938 2094 
Q 2938 2591 2744 2837 
Q 2550 3084 2163 3084 
Q 1697 3084 1428 2787 
Q 1159 2491 1159 1978 
L 1159 0 
L 581 0 
L 581 4863 
L 1159 4863 
L 1159 2956 
Q 1366 3272 1645 3428 
Q 1925 3584 2291 3584 
Q 2894 3584 3203 3211 
Q 3513 2838 3513 2113 
z
" transform="scale(0.015625)"/>
      <path id="DejaVuSans-69" d="M 603 3500 
L 1178 3500 
L 1178 0 
L 603 0 
L 603 3500 
z
M 603 4863 
L 1178 4863 
L 1178 4134 
L 603 4134 
L 603 4863 
z
" transform="scale(0.015625)"/>
      <path id="DejaVuSans-64" d="M 2906 2969 
L 2906 4863 
L 3481 4863 
L 3481 0 
L 2906 0 
L 2906 525 
Q 2725 213 2448 61 
Q 2172 -91 1784 -91 
Q 1150 -91 751 415 
Q 353 922 353 1747 
Q 353 2572 751 3078 
Q 1150 3584 1784 3584 
Q 2172 3584 2448 3432 
Q 2725 3281 2906 2969 
z
M 947 1747 
Q 947 1113 1208 752 
Q 1469 391 1925 391 
Q 2381 391 2643 752 
Q 2906 1113 2906 1747 
Q 2906 2381 2643 2742 
Q 2381 3103 1925 3103 
Q 1469 3103 1208 2742 
Q 947 2381 947 1747 
z
" transform="scale(0.015625)"/>
     </defs>
     <use xlink:href="#DejaVuSans-47"/>
     <use xlink:href="#DejaVuSans-6f" transform="translate(77.490234 0)"/>
     <use xlink:href="#DejaVuSans-61" transform="translate(138.671875 0)"/>
     <use xlink:href="#DejaVuSans-6c" transform="translate(199.951172 0)"/>
     <use xlink:href="#DejaVuSans-20" transform="translate(227.734375 0)"/>
     <use xlink:href="#DejaVuSans-61" transform="translate(259.521484 0)"/>
     <use xlink:href="#DejaVuSans-63" transform="translate(320.800781 0)"/>
     <use xlink:href="#DejaVuSans-68" transform="translate(375.78125 0)"/>
     <use xlink:href="#DejaVuSans-69" transform="translate(439.160156 0)"/>
     <use xlink:href="#DejaVuSans-65" transform="translate(466.943359 0)"/>
     <use xlink:href="#DejaVuSans-76" transform="translate(528.466797 0)"/>
     <use xlink:href="#DejaVuSans-65" transform="translate(587.646484 0)"/>
     <use xlink:href="#DejaVuSans-64" transform="translate(649.169922 0)"/>
    </g>
   </g>
   <g id="patch_20">
    <path d="M 582.219844 422.05413 
L 638.019844 422.05413 
L 638.019844 113.4 
L 582.219844 113.4 
z
" clip-path="url(#pdc44d820e6)" style="fill: #243c6e; stroke: #ffffff; stroke-width: 0.8; stroke-linejoin: miter"/>
   </g>
   <g id="text_6">
    <!-- Goal missed -->
    <g style="fill: #333333" transform="translate(646.389844 269.934565) scale(0.08 -0.08)">
     <defs>
      <path id="DejaVuSans-6d" d="M 3328 2828 
Q 3544 3216 3844 3400 
Q 4144 3584 4550 3584 
Q 5097 3584 5394 3201 
Q 5691 2819 5691 2113 
L 5691 0 
L 5113 0 
L 5113 2094 
Q 5113 2597 4934 2840 
Q 4756 3084 4391 3084 
Q 3944 3084 3684 2787 
Q 3425 2491 3425 1978 
L 3425 0 
L 2847 0 
L 2847 2094 
Q 2847 2600 2669 2842 
Q 2491 3084 2119 3084 
Q 1678 3084 1418 2786 
Q 1159 2488 1159 1978 
L 1159 0 
L 581 0 
L 581 3500 
L 1159 3500 
L 1159 2956 
Q 1356 3278 1631 3431 
Q 1906 3584 2284 3584 
Q 2666 3584 2933 3390 
Q 3200 3197 3328 2828 
z
" transform="scale(0.015625)"/>
      <path id="DejaVuSans-73" d="M 2834 3397 
L 2834 2853 
Q 2591 2978 2328 3040 
Q 2066 3103 1784 3103 
Q 1356 3103 1142 2972 
Q 928 2841 928 2578 
Q 928 2378 1081 2264 
Q 1234 2150 1697 2047 
L 1894 2003 
Q 2506 1872 2764 1633 
Q 3022 1394 3022 966 
Q 3022 478 2636 193 
Q 2250 -91 1575 -91 
Q 1294 -91 989 -36 
Q 684 19 347 128 
L 347 722 
Q 666 556 975 473 
Q 1284 391 1588 391 
Q 1994 391 2212 530 
Q 2431 669 2431 922 
Q 2431 1156 2273 1281 
Q 2116 1406 1581 1522 
L 1381 1569 
Q 847 1681 609 1914 
Q 372 2147 372 2553 
Q 372 3047 722 3315 
Q 1072 3584 1716 3584 
Q 2034 3584 2315 3537 
Q 2597 3491 2834 3397 
z
" transform="scale(0.015625)"/>
     </defs>
     <use xlink:href="#DejaVuSans-47"/>
     <use xlink:href="#DejaVuSans-6f" transform="translate(77.490234 0)"/>
     <use xlink:href="#DejaVuSans-61" transform="translate(138.671875 0)"/>
     <use xlink:href="#DejaVuSans-6c" transform="translate(199.951172 0)"/>
     <use xlink:href="#DejaVuSans-20" transform="translate(227.734375 0)"/>
     <use xlink:href="#DejaVuSans-6d" transform="translate(259.521484 0)"/>
     <use xlink:href="#DejaVuSans-69" transform="translate(356.933594 0)"/>
     <use xlink:href="#DejaVuSans-73" transform="translate(384.716797 0)"/>
     <use xlink:href="#DejaVuSans-73" transform="translate(436.816406 0)"/>
     <use xlink:href="#DejaVuSans-65" transform="translate(488.916016 0)"/>
     <use xlink:href="#DejaVuSans-64" transform="translate(550.439453 0)"/>
    </g>
   </g>
   <g id="text_7">
    <!-- Top violation pattern present -->
    <g transform="translate(103.558594 81.512312) scale(0.1 -0.1)">
     <defs>
      <path id="DejaVuSans-Bold-54" d="M 31 4666 
L 4331 4666 
L 4331 3756 
L 2784 3756 
L 2784 0 
L 1581 0 
L 1581 3756 
L 31 3756 
L 31 4666 
z
" transform="scale(0.015625)"/>
      <path id="DejaVuSans-Bold-6f" d="M 2203 2784 
Q 1831 2784 1636 2517 
Q 1441 2250 1441 1747 
Q 1441 1244 1636 976 
Q 1831 709 2203 709 
Q 2569 709 2762 976 
Q 2956 1244 2956 1747 
Q 2956 2250 2762 2517 
Q 2569 2784 2203 2784 
z
M 2203 3584 
Q 3106 3584 3614 3096 
Q 4122 2609 4122 1747 
Q 4122 884 3614 396 
Q 3106 -91 2203 -91 
Q 1297 -91 786 396 
Q 275 884 275 1747 
Q 275 2609 786 3096 
Q 1297 3584 2203 3584 
z
" transform="scale(0.015625)"/>
      <path id="DejaVuSans-Bold-70" d="M 1656 506 
L 1656 -1331 
L 538 -1331 
L 538 3500 
L 1656 3500 
L 1656 2988 
Q 1888 3294 2169 3439 
Q 2450 3584 2816 3584 
Q 3463 3584 3878 3070 
Q 4294 2556 4294 1747 
Q 4294 938 3878 423 
Q 3463 -91 2816 -91 
Q 2450 -91 2169 54 
Q 1888 200 1656 506 
z
M 2400 2772 
Q 2041 2772 1848 2508 
Q 1656 2244 1656 1747 
Q 1656 1250 1848 986 
Q 2041 722 2400 722 
Q 2759 722 2948 984 
Q 3138 1247 3138 1747 
Q 3138 2247 2948 2509 
Q 2759 2772 2400 2772 
z
" transform="scale(0.015625)"/>
      <path id="DejaVuSans-Bold-20" transform="scale(0.015625)"/>
      <path id="DejaVuSans-Bold-76" d="M 97 3500 
L 1216 3500 
L 2088 1081 
L 2956 3500 
L 4078 3500 
L 2700 0 
L 1472 0 
L 97 3500 
z
" transform="scale(0.015625)"/>
      <path id="DejaVuSans-Bold-69" d="M 538 3500 
L 1656 3500 
L 1656 0 
L 538 0 
L 538 3500 
z
M 538 4863 
L 1656 4863 
L 1656 3950 
L 538 3950 
L 538 4863 
z
" transform="scale(0.015625)"/>
      <path id="DejaVuSans-Bold-6c" d="M 538 4863 
L 1656 4863 
L 1656 0 
L 538 0 
L 538 4863 
z
" transform="scale(0.015625)"/>
      <path id="DejaVuSans-Bold-61" d="M 2106 1575 
Q 1756 1575 1579 1456 
Q 1403 1338 1403 1106 
Q 1403 894 1545 773 
Q 1688 653 1941 653 
Q 2256 653 2472 879 
Q 2688 1106 2688 1447 
L 2688 1575 
L 2106 1575 
z
M 3816 1997 
L 3816 0 
L 2688 0 
L 2688 519 
Q 2463 200 2181 54 
Q 1900 -91 1497 -91 
Q 953 -91 614 226 
Q 275 544 275 1050 
Q 275 1666 698 1953 
Q 1122 2241 2028 2241 
L 2688 2241 
L 2688 2328 
Q 2688 2594 2478 2717 
Q 2269 2841 1825 2841 
Q 1466 2841 1156 2769 
Q 847 2697 581 2553 
L 581 3406 
Q 941 3494 1303 3539 
Q 1666 3584 2028 3584 
Q 2975 3584 3395 3211 
Q 3816 2838 3816 1997 
z
" transform="scale(0.015625)"/>
      <path id="DejaVuSans-Bold-74" d="M 1759 4494 
L 1759 3500 
L 2913 3500 
L 2913 2700 
L 1759 2700 
L 1759 1216 
Q 1759 972 1856 886 
Q 1953 800 2241 800 
L 2816 800 
L 2816 0 
L 1856 0 
Q 1194 0 917 276 
Q 641 553 641 1216 
L 641 2700 
L 84 2700 
L 84 3500 
L 641 3500 
L 641 4494 
L 1759 4494 
z
" transform="scale(0.015625)"/>
      <path id="DejaVuSans-Bold-6e" d="M 4056 2131 
L 4056 0 
L 2931 0 
L 2931 347 
L 2931 1631 
Q 2931 2084 2911 2256 
Q 2891 2428 2841 2509 
Q 2775 2619 2662 2680 
Q 2550 2741 2406 2741 
Q 2056 2741 1856 2470 
Q 1656 2200 1656 1722 
L 1656 0 
L 538 0 
L 538 3500 
L 1656 3500 
L 1656 2988 
Q 1909 3294 2193 3439 
Q 2478 3584 2822 3584 
Q 3428 3584 3742 3212 
Q 4056 2841 4056 2131 
z
" transform="scale(0.015625)"/>
      <path id="DejaVuSans-Bold-65" d="M 4031 1759 
L 4031 1441 
L 1416 1441 
Q 1456 1047 1700 850 
Q 1944 653 2381 653 
Q 2734 653 3104 758 
Q 3475 863 3866 1075 
L 3866 213 
Q 3469 63 3072 -14 
Q 2675 -91 2278 -91 
Q 1328 -91 801 392 
Q 275 875 275 1747 
Q 275 2603 792 3093 
Q 1309 3584 2216 3584 
Q 3041 3584 3536 3087 
Q 4031 2591 4031 1759 
z
M 2881 2131 
Q 2881 2450 2695 2645 
Q 2509 2841 2209 2841 
Q 1884 2841 1681 2658 
Q 1478 2475 1428 2131 
L 2881 2131 
z
" transform="scale(0.015625)"/>
      <path id="DejaVuSans-Bold-72" d="M 3138 2547 
Q 2991 2616 2845 2648 
Q 2700 2681 2553 2681 
Q 2122 2681 1889 2404 
Q 1656 2128 1656 1613 
L 1656 0 
L 538 0 
L 538 3500 
L 1656 3500 
L 1656 2925 
Q 1872 3269 2151 3426 
Q 2431 3584 2822 3584 
Q 2878 3584 2943 3579 
Q 3009 3575 3134 3559 
L 3138 2547 
z
" transform="scale(0.015625)"/>
      <path id="DejaVuSans-Bold-73" d="M 3272 3391 
L 3272 2541 
Q 2913 2691 2578 2766 
Q 2244 2841 1947 2841 
Q 1628 2841 1473 2761 
Q 1319 2681 1319 2516 
Q 1319 2381 1436 2309 
Q 1553 2238 1856 2203 
L 2053 2175 
Q 2913 2066 3209 1816 
Q 3506 1566 3506 1031 
Q 3506 472 3093 190 
Q 2681 -91 1863 -91 
Q 1516 -91 1145 -36 
Q 775 19 384 128 
L 384 978 
Q 719 816 1070 734 
Q 1422 653 1784 653 
Q 2113 653 2278 743 
Q 2444 834 2444 1013 
Q 2444 1163 2330 1236 
Q 2216 1309 1875 1350 
L 1678 1375 
Q 931 1469 631 1722 
Q 331 1975 331 2491 
Q 331 3047 712 3315 
Q 1094 3584 1881 3584 
Q 2191 3584 2531 3537 
Q 2872 3491 3272 3391 
z
" transform="scale(0.015625)"/>
     </defs>
     <use xlink:href="#DejaVuSans-Bold-54"/>
     <use xlink:href="#DejaVuSans-Bold-6f" transform="translate(54.962891 0)"/>
     <use xlink:href="#DejaVuSans-Bold-70" transform="translate(123.664062 0)"/>
     <use xlink:href="#DejaVuSans-Bold-20" transform="translate(195.246094 0)"/>
     <use xlink:href="#DejaVuSans-Bold-76" transform="translate(230.060547 0)"/>
     <use xlink:href="#DejaVuSans-Bold-69" transform="translate(295.246094 0)"/>
     <use xlink:href="#DejaVuSans-Bold-6f" transform="translate(329.523438 0)"/>
     <use xlink:href="#DejaVuSans-Bold-6c" transform="translate(398.224609 0)"/>
     <use xlink:href="#DejaVuSans-Bold-61" transform="translate(432.501953 0)"/>
     <use xlink:href="#DejaVuSans-Bold-74" transform="translate(499.982422 0)"/>
     <use xlink:href="#DejaVuSans-Bold-69" transform="translate(547.785156 0)"/>
     <use xlink:href="#DejaVuSans-Bold-6f" transform="translate(582.0625 0)"/>
     <use xlink:href="#DejaVuSans-Bold-6e" transform="translate(650.763672 0)"/>
     <use xlink:href="#DejaVuSans-Bold-20" transform="translate(721.955078 0)"/>
     <use xlink:href="#DejaVuSans-Bold-70" transform="translate(756.769531 0)"/>
     <use xlink:href="#DejaVuSans-Bold-61" transform="translate(828.351562 0)"/>
     <use xlink:href="#DejaVuSans-Bold-74" transform="translate(895.832031 0)"/>
     <use xlink:href="#DejaVuSans-Bold-74" transform="translate(943.634766 0)"/>
     <use xlink:href="#DejaVuSans-Bold-65" transform="translate(991.4375 0)"/>
     <use xlink:href="#DejaVuSans-Bold-72" transform="translate(1059.259766 0)"/>
     <use xlink:href="#DejaVuSans-Bold-6e" transform="translate(1108.576172 0)"/>
     <use xlink:href="#DejaVuSans-Bold-20" transform="translate(1179.767578 0)"/>
     <use xlink:href="#DejaVuSans-Bold-70" transform="translate(1214.582031 0)"/>
     <use xlink:href="#DejaVuSans-Bold-72" transform="translate(1286.164062 0)"/>
     <use xlink:href="#DejaVuSans-Bold-65" transform="translate(1335.480469 0)"/>
     <use xlink:href="#DejaVuSans-Bold-73" transform="translate(1403.302734 0)"/>
     <use xlink:href="#DejaVuSans-Bold-65" transform="translate(1462.824219 0)"/>
     <use xlink:href="#DejaVuSans-Bold-6e" transform="translate(1530.646484 0)"/>
     <use xlink:href="#DejaVuSans-Bold-74" transform="translate(1601.837891 0)"/>
    </g>
   </g>
   <g id="text_8">
    <!-- Process goal -->
    <g transform="translate(574.404219 81.434187) scale(0.1 -0.1)">
     <defs>
      <path id="DejaVuSans-Bold-50" d="M 588 4666 
L 2584 4666 
Q 3475 4666 3951 4270 
Q 4428 3875 4428 3144 
Q 4428 2409 3951 2014 
Q 3475 1619 2584 1619 
L 1791 1619 
L 1791 0 
L 588 0 
L 588 4666 
z
M 1791 3794 
L 1791 2491 
L 2456 2491 
Q 2806 2491 2997 2661 
Q 3188 2831 3188 3144 
Q 3188 3456 2997 3625 
Q 2806 3794 2456 3794 
L 1791 3794 
z
" transform="scale(0.015625)"/>
      <path id="DejaVuSans-Bold-63" d="M 3366 3391 
L 3366 2478 
Q 3138 2634 2908 2709 
Q 2678 2784 2431 2784 
Q 1963 2784 1702 2511 
Q 1441 2238 1441 1747 
Q 1441 1256 1702 982 
Q 1963 709 2431 709 
Q 2694 709 2930 787 
Q 3166 866 3366 1019 
L 3366 103 
Q 3103 6 2833 -42 
Q 2563 -91 2291 -91 
Q 1344 -91 809 395 
Q 275 881 275 1747 
Q 275 2613 809 3098 
Q 1344 3584 2291 3584 
Q 2566 3584 2833 3536 
Q 3100 3488 3366 3391 
z
" transform="scale(0.015625)"/>
      <path id="DejaVuSans-Bold-67" d="M 2919 594 
Q 2688 288 2409 144 
Q 2131 0 1766 0 
Q 1125 0 706 504 
Q 288 1009 288 1791 
Q 288 2575 706 3076 
Q 1125 3578 1766 3578 
Q 2131 3578 2409 3434 
Q 2688 3291 2919 2981 
L 2919 3500 
L 4044 3500 
L 4044 353 
Q 4044 -491 3511 -936 
Q 2978 -1381 1966 -1381 
Q 1638 -1381 1331 -1331 
Q 1025 -1281 716 -1178 
L 716 -306 
Q 1009 -475 1290 -558 
Q 1572 -641 1856 -641 
Q 2406 -641 2662 -400 
Q 2919 -159 2919 353 
L 2919 594 
z
M 2181 2772 
Q 1834 2772 1640 2515 
Q 1447 2259 1447 1791 
Q 1447 1309 1634 1061 
Q 1822 813 2181 813 
Q 2531 813 2725 1069 
Q 2919 1325 2919 1791 
Q 2919 2259 2725 2515 
Q 2531 2772 2181 2772 
z
" transform="scale(0.015625)"/>
     </defs>
     <use xlink:href="#DejaVuSans-Bold-50"/>
     <use xlink:href="#DejaVuSans-Bold-72" transform="translate(73.291016 0)"/>
     <use xlink:href="#DejaVuSans-Bold-6f" transform="translate(122.607422 0)"/>
     <use xlink:href="#DejaVuSans-Bold-63" transform="translate(191.308594 0)"/>
     <use xlink:href="#DejaVuSans-Bold-65" transform="translate(250.585938 0)"/>
     <use xlink:href="#DejaVuSans-Bold-73" transform="translate(318.408203 0)"/>
     <use xlink:href="#DejaVuSans-Bold-73" transform="translate(377.929688 0)"/>
     <use xlink:href="#DejaVuSans-Bold-20" transform="translate(437.451172 0)"/>
     <use xlink:href="#DejaVuSans-Bold-67" transform="translate(472.265625 0)"/>
     <use xlink:href="#DejaVuSans-Bold-6f" transform="translate(543.847656 0)"/>
     <use xlink:href="#DejaVuSans-Bold-61" transform="translate(612.548828 0)"/>
     <use xlink:href="#DejaVuSans-Bold-6c" transform="translate(680.029297 0)"/>
    </g>
   </g>
  </g>
  <g id="text_9">
   <!-- Violation Pattern vs. Process Goal (ribbon = # traces) -->
   <g transform="translate(215.134766 20.677969) scale(0.13 -0.13)">
    <defs>
     <path id="DejaVuSans-74" d="M 1172 4494 
L 1172 3500 
L 2356 3500 
L 2356 3053 
L 1172 3053 
L 1172 1153 
Q 1172 725 1289 603 
Q 1406 481 1766 481 
L 2356 481 
L 2356 0 
L 1766 0 
Q 1100 0 847 248 
Q 594 497 594 1153 
L 594 3053 
L 172 3053 
L 172 3500 
L 594 3500 
L 594 4494 
L 1172 4494 
z
" transform="scale(0.015625)"/>
     <path id="DejaVuSans-6e" d="M 3513 2113 
L 3513 0 
L 2938 0 
L 2938 2094 
Q 2938 2591 2744 2837 
Q 2550 3084 2163 3084 
Q 1697 3084 1428 2787 
Q 1159 2491 1159 1978 
L 1159 0 
L 581 0 
L 581 3500 
L 1159 3500 
L 1159 2956 
Q 1366 3272 1645 3428 
Q 1925 3584 2291 3584 
Q 2894 3584 3203 3211 
Q 3513 2838 3513 2113 
z
" transform="scale(0.015625)"/>
     <path id="DejaVuSans-72" d="M 2631 2963 
Q 2534 3019 2420 3045 
Q 2306 3072 2169 3072 
Q 1681 3072 1420 2755 
Q 1159 2438 1159 1844 
L 1159 0 
L 581 0 
L 581 3500 
L 1159 3500 
L 1159 2956 
Q 1341 3275 1631 3429 
Q 1922 3584 2338 3584 
Q 2397 3584 2469 3576 
Q 2541 3569 2628 3553 
L 2631 2963 
z
" transform="scale(0.015625)"/>
     <path id="DejaVuSans-2e" d="M 684 794 
L 1344 794 
L 1344 0 
L 684 0 
L 684 794 
z
" transform="scale(0.015625)"/>
     <path id="DejaVuSans-62" d="M 3116 1747 
Q 3116 2381 2855 2742 
Q 2594 3103 2138 3103 
Q 1681 3103 1420 2742 
Q 1159 2381 1159 1747 
Q 1159 1113 1420 752 
Q 1681 391 2138 391 
Q 2594 391 2855 752 
Q 3116 1113 3116 1747 
z
M 1159 2969 
Q 1341 3281 1617 3432 
Q 1894 3584 2278 3584 
Q 2916 3584 3314 3078 
Q 3713 2572 3713 1747 
Q 3713 922 3314 415 
Q 2916 -91 2278 -91 
Q 1894 -91 1617 61 
Q 1341 213 1159 525 
L 1159 0 
L 581 0 
L 581 4863 
L 1159 4863 
L 1159 2969 
z
" transform="scale(0.015625)"/>
     <path id="DejaVuSans-3d" d="M 678 2906 
L 4684 2906 
L 4684 2381 
L 678 2381 
L 678 2906 
z
M 678 1631 
L 4684 1631 
L 4684 1100 
L 678 1100 
L 678 1631 
z
" transform="scale(0.015625)"/>
     <path id="DejaVuSans-23" d="M 3272 2816 
L 2363 2816 
L 2100 1772 
L 3016 1772 
L 3272 2816 
z
M 2803 4594 
L 2478 3297 
L 3391 3297 
L 3719 4594 
L 4219 4594 
L 3897 3297 
L 4872 3297 
L 4872 2816 
L 3775 2816 
L 3519 1772 
L 4513 1772 
L 4513 1294 
L 3397 1294 
L 3072 0 
L 2572 0 
L 2894 1294 
L 1978 1294 
L 1656 0 
L 1153 0 
L 1478 1294 
L 494 1294 
L 494 1772 
L 1594 1772 
L 1856 2816 
L 850 2816 
L 850 3297 
L 1978 3297 
L 2297 4594 
L 2803 4594 
z
" transform="scale(0.015625)"/>
    </defs>
    <use xlink:href="#DejaVuSans-56"/>
    <use xlink:href="#DejaVuSans-69" transform="translate(66.158203 0)"/>
    <use xlink:href="#DejaVuSans-6f" transform="translate(93.941406 0)"/>
    <use xlink:href="#DejaVuSans-6c" transform="translate(155.123047 0)"/>
    <use xlink:href="#DejaVuSans-61" transform="translate(182.90625 0)"/>
    <use xlink:href="#DejaVuSans-74" transform="translate(244.185547 0)"/>
    <use xlink:href="#DejaVuSans-69" transform="translate(283.394531 0)"/>
    <use xlink:href="#DejaVuSans-6f" transform="translate(311.177734 0)"/>
    <use xlink:href="#DejaVuSans-6e" transform="translate(372.359375 0)"/>
    <use xlink:href="#DejaVuSans-20" transform="translate(435.738281 0)"/>
    <use xlink:href="#DejaVuSans-50" transform="translate(467.525391 0)"/>
    <use xlink:href="#DejaVuSans-61" transform="translate(523.328125 0)"/>
    <use xlink:href="#DejaVuSans-74" transform="translate(584.607422 0)"/>
    <use xlink:href="#DejaVuSans-74" transform="translate(623.816406 0)"/>
    <use xlink:href="#DejaVuSans-65" transform="translate(663.025391 0)"/>
    <use xlink:href="#DejaVuSans-72" transform="translate(724.548828 0)"/>
    <use xlink:href="#DejaVuSans-6e" transform="translate(763.912109 0)"/>
    <use xlink:href="#DejaVuSans-20" transform="translate(827.291016 0)"/>
    <use xlink:href="#DejaVuSans-76" transform="translate(859.078125 0)"/>
    <use xlink:href="#DejaVuSans-73" transform="translate(918.257812 0)"/>
    <use xlink:href="#DejaVuSans-2e" transform="translate(970.357422 0)"/>
    <use xlink:href="#DejaVuSans-20" transform="translate(1002.144531 0)"/>
    <use xlink:href="#DejaVuSans-50" transform="translate(1033.931641 0)"/>
    <use xlink:href="#DejaVuSans-72" transform="translate(1092.484375 0)"/>
    <use xlink:href="#DejaVuSans-6f" transform="translate(1131.347656 0)"/>
    <use xlink:href="#DejaVuSans-63" transform="translate(1192.529297 0)"/>
    <use xlink:href="#DejaVuSans-65" transform="translate(1247.509766 0)"/>
    <use xlink:href="#DejaVuSans-73" transform="translate(1309.033203 0)"/>
    <use xlink:href="#DejaVuSans-73" transform="translate(1361.132812 0)"/>
    <use xlink:href="#DejaVuSans-20" transform="translate(1413.232422 0)"/>
    <use xlink:href="#DejaVuSans-47" transform="translate(1445.019531 0)"/>
    <use xlink:href="#DejaVuSans-6f" transform="translate(1522.509766 0)"/>
    <use xlink:href="#DejaVuSans-61" transform="translate(1583.691406 0)"/>
    <use xlink:href="#DejaVuSans-6c" transform="translate(1644.970703 0)"/>
    <use xlink:href="#DejaVuSans-20" transform="translate(1672.753906 0)"/>
    <use xlink:href="#DejaVuSans-28" transform="translate(1704.541016 0)"/>
    <use xlink:href="#DejaVuSans-72" transform="translate(1743.554688 0)"/>
    <use xlink:href="#DejaVuSans-69" transform="translate(1784.667969 0)"/>
    <use xlink:href="#DejaVuSans-62" transform="translate(1812.451172 0)"/>
    <use xlink:href="#DejaVuSans-62" transform="translate(1875.927734 0)"/>
    <use xlink:href="#DejaVuSans-6f" transform="translate(1939.404297 0)"/>
    <use xlink:href="#DejaVuSans-6e" transform="translate(2000.585938 0)"/>
    <use xlink:href="#DejaVuSans-20" transform="translate(2063.964844 0)"/>
    <use xlink:href="#DejaVuSans-3d" transform="translate(2095.751953 0)"/>
    <use xlink:href="#DejaVuSans-20" transform="translate(2179.541016 0)"/>
    <use xlink:href="#DejaVuSans-23" transform="translate(2211.328125 0)"/>
    <use xlink:href="#DejaVuSans-20" transform="translate(2295.117188 0)"/>
    <use xlink:href="#DejaVuSans-74" transform="translate(2326.904297 0)"/>
    <use xlink:href="#DejaVuSans-72" transform="translate(2366.113281 0)"/>
    <use xlink:href="#DejaVuSans-61" transform="translate(2407.226562 0)"/>
    <use xlink:href="#DejaVuSans-63" transform="translate(2468.505859 0)"/>
    <use xlink:href="#DejaVuSans-65" transform="translate(2523.486328 0)"/>
    <use xlink:href="#DejaVuSans-73" transform="translate(2585.009766 0)"/>
    <use xlink:href="#DejaVuSans-29" transform="translate(2637.109375 0)"/>
   </g>
  </g>
 </g>
 <defs>
  <clipPath id="pdc44d820e6">
   <rect x="119.079844" y="113.4" width="558" height="372.6"/>
  </clipPath>
 </defs>
</svg>
